<?xml version="1.0" standalone="no"?>
<!DOCTYPE svg PUBLIC "-//W3C//DTD SVG 20010904//EN"
 "http://www.w3.org/TR/2001/REC-SVG-20010904/DTD/svg10.dtd">
<svg version="1.0" xmlns="http://www.w3.org/2000/svg"
 width="800.000000pt" height="800.000000pt" viewBox="0 0 800.000000 800.000000"
 preserveAspectRatio="xMidYMid meet">

	<!-- Add a solid background -->
	<rect width="100%" height="100%" fill="#ffffff" />

	<g transform="translate(0.000000,800.000000) scale(0.100000,-0.100000)"
	fill="#000000" stroke="none">
		<path d="M0 4000 l0 -4000 4000 0 4000 0 0 4000 0 4000 -4000 0 -4000 0 0
  -4000z m1500 179 c0 -528 1 -560 18 -557 9 2 99 53 199 113 273 164 378 228
  483 290 121 72 204 122 733 440 l432 260 531 3 530 3 35 -24 c21 -14 36 -34
  40 -52 4 -17 7 -303 8 -637 0 -335 5 -608 9 -608 5 0 62 35 128 78 65 43 162
  105 214 139 52 34 192 125 310 202 118 78 238 154 265 171 28 17 111 71 185
  120 74 49 203 132 285 185 83 53 204 132 270 175 66 43 178 116 250 162 l130
  83 260 3 c230 3 264 2 292 -14 61 -32 63 -46 63 -517 0 -473 -5 -515 -61 -573
  -17 -18 -101 -74 -187 -125 -87 -51 -210 -126 -275 -166 -65 -40 -125 -73
  -133 -73 -12 0 -14 74 -14 500 0 400 -3 500 -13 500 -7 0 -97 -55 -200 -122
  -103 -68 -235 -154 -295 -193 -127 -82 -319 -207 -492 -320 -69 -44 -173 -112
  -233 -150 -59 -39 -145 -95 -190 -125 l-82 -55 -537 -3 -537 -3 -33 30 -33 29
  -3 631 c-1 347 -5 631 -7 631 -4 0 -870 -518 -949 -567 l-39 -25 357 -357
  c196 -196 354 -360 350 -364 -12 -12 -679 -8 -711 3 -15 6 -125 108 -244 226
  l-216 216 -219 -132 c-120 -73 -286 -174 -369 -224 l-150 -91 -383 0 -384 0
  -23 27 c-13 15 -27 47 -30 70 -4 24 -5 234 -3 468 4 465 4 464 65 522 16 15
  145 98 288 183 143 86 264 161 270 166 5 5 17 9 27 9 17 0 18 -27 18 -561z"/>
	</g>
</svg>
